<svg width="100" height="125" viewBox="0 0 100 125" fill="none" xmlns="http://www.w3.org/2000/svg">
<path d="M70.994 46.527C70.281 44.9 68.54 43.582 66.746 43.179V40.489C66.746 39.936 66.298 39.489 65.746 39.489H65.533V37.323C65.533 37.172 65.494 37.031 65.433 36.902L72.316 27.214C72.348 27.169 72.366 27.119 72.39 27.071C72.402 27.048 72.416 27.026 72.426 27.001C72.469 26.892 72.491 26.778 72.494 26.661C72.494 26.652 72.5 26.644 72.5 26.635V17.518V17.075V14.913C72.5 13.428 71.291 12.22 69.806 12.22H52.483C50.997 12.22 49.789 13.428 49.789 14.913V17.075V17.518V26.635C49.789 26.645 49.794 26.653 49.794 26.661C49.798 26.778 49.819 26.891 49.862 27.001C49.873 27.026 49.887 27.048 49.899 27.072C49.922 27.12 49.942 27.17 49.973 27.214L56.856 36.902C56.795 37.031 56.756 37.172 56.756 37.323V39.489H56.544C55.992 39.489 55.544 39.936 55.544 40.489V43.04H53.39C53.06 43.04 52.783 43.21 52.6 43.456H39.466C37.755 43.456 36.363 44.849 36.363 46.56V65.798C36.363 67.509 37.755 68.902 39.466 68.902H52.39V74.56H51.061V72.66C51.061 72.107 50.613 71.66 50.061 71.66H40.044C39.491 71.66 39.044 72.107 39.044 72.66V73.447H29.701C28.251 73.447 27.072 74.627 27.072 76.076C27.072 77.525 28.251 78.705 29.701 78.705H39.652C40.323 79.776 41.482 80.49 42.804 80.49H47.302C49.374 80.49 51.06 78.743 51.06 76.595V76.56H52.389V81.574H22.851C22.528 81.574 22.224 81.73 22.037 81.994C21.637 82.557 21.433 83.157 21.433 83.777C21.433 85.838 23.525 87.451 26.196 87.451H52.958C53.035 87.451 53.103 87.424 53.175 87.407C53.247 87.424 53.315 87.451 53.392 87.451H73.849C76.139 87.451 78.002 85.588 78.002 83.297V68.399C78.002 66.512 77.409 63.681 76.675 62.009L70.994 46.527ZM49.061 73.659V74.559H41.131C41.101 74.559 41.074 74.574 41.044 74.577V73.659H49.061ZM29.701 76.704C29.354 76.704 29.072 76.422 29.072 76.075C29.072 75.728 29.354 75.446 29.701 75.446H39.044V76.594C39.044 76.631 39.054 76.666 39.055 76.703H29.701V76.704ZM49.061 76.595C49.061 77.64 48.273 78.49 47.303 78.49H42.805C41.834 78.49 41.044 77.64 41.044 76.595V76.542C41.074 76.545 41.101 76.56 41.131 76.56H49.061V76.595ZM51.789 18.075H70.501V25.636H51.789V18.075ZM52.483 14.22H69.806C70.182 14.22 70.5 14.537 70.5 14.913V16.075H51.789V14.913C51.789 14.531 52.101 14.22 52.483 14.22ZM69.563 27.636L63.391 36.324H58.897L52.725 27.636H69.563V27.636ZM58.757 38.323H63.533V39.489H58.757V38.323V38.323ZM57.545 41.489H64.746V43.04H57.545V41.489V41.489ZM39.466 45.456H52.39V47.661H38.363V46.56C38.363 45.951 38.858 45.456 39.466 45.456ZM39.466 66.901C38.859 66.901 38.363 66.406 38.363 65.797V49.661H52.39V66.901H39.466ZM23.432 83.776C23.432 83.71 23.441 83.642 23.458 83.573H52.39V85.45H26.194C24.566 85.45 23.432 84.568 23.432 83.776ZM76 83.296C76 84.484 75.034 85.45 73.847 85.45H54.39V45.04H65.659C66.99 45.04 68.629 46.11 69.14 47.273L74.819 62.755C75.459 64.218 76 66.803 76 68.399V83.296Z" fill="black"/>
<path d="M62.575 72.196C61.336 72.196 60.171 72.677 59.294 73.553C57.487 75.364 57.487 78.307 59.296 80.116C60.172 80.991 61.337 81.472 62.575 81.472C63.815 81.472 64.979 80.991 65.855 80.115C67.665 78.305 67.665 75.362 65.855 73.552C64.979 72.678 63.815 72.196 62.575 72.196ZM60.709 74.968C61.207 74.47 61.87 74.197 62.575 74.197C62.931 74.197 63.276 74.267 63.595 74.401L60.144 77.854C59.744 76.895 59.931 75.746 60.709 74.968ZM64.441 78.702C63.692 79.451 62.523 79.637 61.565 79.259L65.006 75.817C65.407 76.775 65.22 77.924 64.441 78.702Z" fill="black"/>
</svg>
