<svg width="90" height="89" viewBox="0 0 90 89" fill="none" xmlns="http://www.w3.org/2000/svg">
<path d="M26.4165 42.7292L15.7567 19.1195C15.597 18.7663 15.3388 18.4667 15.0131 18.2566C14.6873 18.0464 14.308 17.9347 13.9204 17.9347C13.5327 17.9347 13.1534 18.0464 12.8277 18.2566C12.502 18.4667 12.2438 18.7663 12.084 19.1195L1.42416 42.7292C1.01526 42.8581 0.658108 43.1141 0.404625 43.4599C0.151142 43.8057 0.0145324 44.2233 0.0146485 44.652C0.0147512 47.4027 0.830478 50.0915 2.35868 52.3785C3.88688 54.6656 6.05893 56.4481 8.60018 57.5007C11.1414 58.5534 13.9377 58.8288 16.6355 58.2923C19.3333 57.7558 21.8114 56.4313 23.7565 54.4864C25.0521 53.1979 26.0792 51.6653 26.7784 49.9773C27.4776 48.2892 27.8351 46.4792 27.8301 44.652C27.8299 44.2228 27.6927 43.8048 27.4385 43.4589C27.1842 43.1131 26.8262 42.8574 26.4165 42.7292ZM13.9204 24.8462L21.9515 42.6365H5.88427L13.9204 24.8462ZM13.9204 54.5285C9.16464 54.5285 5.18377 51.15 4.25081 46.6671H23.5877C22.6547 51.15 18.6734 54.529 13.9181 54.529L13.9204 54.5285Z" fill="black"/>
<path d="M87.8622 42.7292L77.2023 19.1195C77.0426 18.7663 76.7844 18.4667 76.4587 18.2566C76.133 18.0464 75.7536 17.9347 75.366 17.9347C74.9784 17.9347 74.599 18.0464 74.2733 18.2566C73.9476 18.4667 73.6894 18.7663 73.5296 19.1195L62.8697 42.7292C62.4608 42.8581 62.1037 43.114 61.8502 43.4598C61.5967 43.8056 61.4601 44.2232 61.4602 44.652C61.5018 48.313 62.9853 51.81 65.5888 54.3842C68.1924 56.9584 71.706 58.4021 75.3673 58.4021C79.0286 58.4021 82.5422 56.9584 85.1458 54.3842C87.7494 51.81 89.2329 48.313 89.2744 44.652C89.2744 44.2229 89.1374 43.805 88.8834 43.4592C88.6294 43.1134 88.2716 42.8576 87.8622 42.7292V42.7292ZM75.3637 24.8462L83.3972 42.6365H67.3299L75.3637 24.8462ZM75.3637 54.5284C70.608 54.5284 66.6271 51.15 65.6941 46.667H85.0338C84.1004 51.15 80.119 54.5289 75.3637 54.5289V54.5284Z" fill="black"/>
<path d="M60.6247 84.969H53.3124C53.1982 81.3885 50.7084 78.3971 47.3707 77.5232V16.0031C48.554 15.6251 49.6086 14.9247 50.416 13.9806C51.2234 13.0365 51.7516 11.886 51.9414 10.6584C54.0351 10.4476 56.1406 10.3778 58.2437 10.4492C61.6853 10.558 66.6229 11.0789 71.7647 12.8342C71.9474 13.5545 72.3547 14.1979 72.9276 14.6711C73.5004 15.1444 74.2091 15.423 74.9509 15.4666C75.6927 15.5102 76.4291 15.3165 77.0535 14.9136C77.6778 14.5106 78.1577 13.9194 78.4235 13.2255C78.6893 12.5316 78.7274 11.7711 78.5321 11.0541C78.3368 10.3372 77.9183 9.70101 77.3373 9.2378C76.7562 8.77459 76.0428 8.50839 75.3004 8.47777C74.5579 8.44714 73.825 8.65367 73.2078 9.06745C71.0082 8.31043 68.7558 7.71686 66.4688 7.29156C63.7586 6.7881 61.0135 6.49565 58.258 6.41683C55.1228 6.32412 52.6639 6.52029 51.3117 6.67123C50.7496 5.55472 49.8868 4.61743 48.8205 3.96507C48.8874 3.47084 48.8477 2.96802 48.7043 2.49038C48.5608 2.01273 48.3168 1.57131 47.9886 1.19575C47.6604 0.820186 47.2557 0.519182 46.8016 0.312942C46.3475 0.106702 45.8546 0 45.3558 0C44.8571 0 44.3641 0.106702 43.91 0.312942C43.4559 0.519182 43.0512 0.820186 42.7231 1.19575C42.3949 1.57131 42.1509 2.01273 42.0074 2.49038C41.8639 2.96802 41.8243 3.47084 41.8912 3.96507C40.7575 4.65843 39.8553 5.67297 39.2992 6.87995C39.22 6.85624 39.1393 6.8374 39.0578 6.82352C38.9234 6.80112 35.725 6.27574 30.9586 6.41638C28.2031 6.4952 25.458 6.78765 22.7478 7.29112C20.4606 7.71578 18.2078 8.30876 16.0079 9.06521C15.3915 8.65292 14.6598 8.44749 13.9189 8.47866C13.1779 8.50983 12.4661 8.77599 11.8865 9.2386C11.3068 9.70121 10.8894 10.3363 10.6947 11.0519C10.5 11.7675 10.5381 12.5265 10.8034 13.219C11.0687 13.9115 11.5475 14.5016 12.1705 14.9039C12.7935 15.3063 13.5284 15.4999 14.2687 15.4568C15.0091 15.4137 15.7165 15.1361 16.2886 14.6642C16.8608 14.1923 17.2679 13.5506 17.451 12.832C22.5928 11.0762 27.5304 10.5558 30.972 10.4492C35.3712 10.3104 38.3622 10.795 38.3931 10.7999C38.5263 10.8221 38.6613 10.831 38.7962 10.8263C39.0124 12.0204 39.5495 13.1331 40.35 14.045C41.1505 14.957 42.1842 15.6339 43.3401 16.0031V77.5232C40.0024 78.3971 37.5126 81.3885 37.3984 84.969H30.0861C29.5515 84.969 29.0389 85.1813 28.6609 85.5593C28.2829 85.9373 28.0706 86.4499 28.0706 86.9845C28.0706 87.519 28.2829 88.0317 28.6609 88.4097C29.0389 88.7877 29.5515 89 30.0861 89H60.6247C61.1592 89 61.6719 88.7877 62.0499 88.4097C62.4279 88.0317 62.6402 87.519 62.6402 86.9845C62.6402 86.4499 62.4279 85.9373 62.0499 85.5593C61.6719 85.1813 61.1592 84.969 60.6247 84.969V84.969ZM45.3556 2.96538C45.411 2.96536 45.466 2.97397 45.5186 2.99091C45.4643 2.99091 45.41 2.99091 45.3556 2.99091C45.3013 2.99091 45.2469 2.99091 45.1926 2.99091C45.2453 2.97397 45.3003 2.96536 45.3556 2.96538V2.96538ZM45.3556 7.02014C45.876 7.02014 46.3846 7.17444 46.8173 7.46353C47.2499 7.75262 47.5871 8.16351 47.7863 8.64425C47.9854 9.12499 48.0375 9.65397 47.936 10.1643C47.8345 10.6747 47.5839 11.1435 47.216 11.5114C46.848 11.8793 46.3792 12.1299 45.8689 12.2314C45.3585 12.3329 44.8295 12.2808 44.3488 12.0817C43.8681 11.8826 43.4572 11.5454 43.1681 11.1127C42.879 10.6801 42.7247 10.1714 42.7247 9.65106C42.7255 8.95355 43.003 8.28485 43.4962 7.79163C43.9894 7.29842 44.6581 7.02097 45.3556 7.02014V7.02014ZM45.3556 81.2954C46.3531 81.2965 47.3129 81.6764 48.041 82.3582C48.7691 83.04 49.2112 83.9728 49.2778 84.9681H41.4348C41.5014 83.9731 41.9432 83.0404 42.6711 82.3587C43.3989 81.6769 44.3584 81.2969 45.3556 81.2954V81.2954Z" fill="black"/>
</svg>
