<svg xmlns="http://www.w3.org/2000/svg" xmlns:xlink="http://www.w3.org/1999/xlink" version="1.1" x="0px" y="0px" viewBox="0 0 100 125" style="enable-background:new 0 0 100 100;" xml:space="preserve"><g><path d="M83,18.55c0-3.61-2.94-6.55-6.55-6.55H20.55C16.94,12,14,14.94,14,18.55v11.89c0,3.61,2.94,6.55,6.55,6.55h55.89   c3.61,0,6.55-2.94,6.55-6.55V18.55z M79,30.45c0,1.41-1.15,2.55-2.55,2.55H20.55C19.15,33,18,31.85,18,30.45V18.55   c0-1.41,1.15-2.55,2.55-2.55h55.89c1.41,0,2.55,1.15,2.55,2.55V30.45z"/><path d="M26.5,19c-3.03,0-5.5,2.47-5.5,5.5s2.47,5.5,5.5,5.5s5.5-2.47,5.5-5.5S29.53,19,26.5,19z M26.5,26   c-0.83,0-1.5-0.67-1.5-1.5s0.67-1.5,1.5-1.5s1.5,0.67,1.5,1.5S27.33,26,26.5,26z"/><path d="M64,19c-1.1,0-2,0.9-2,2v7c0,1.1,0.9,2,2,2s2-0.9,2-2v-7C66,19.9,65.1,19,64,19z"/><path d="M72,19c-1.1,0-2,0.9-2,2v7c0,1.1,0.9,2,2,2s2-0.9,2-2v-7C74,19.9,73.1,19,72,19z"/><path d="M83,45.55c0-3.61-2.94-6.55-6.55-6.55H20.55C16.94,39,14,41.94,14,45.55v11.89c0,3.61,2.94,6.55,6.55,6.55h55.89   c3.61,0,6.55-2.94,6.55-6.55V45.55z M79,57.45c0,1.41-1.15,2.55-2.55,2.55H20.55C19.15,60,18,58.85,18,57.45V45.55   c0-1.41,1.15-2.55,2.55-2.55h55.89c1.41,0,2.55,1.15,2.55,2.55V57.45z"/><path d="M26.5,46c-3.03,0-5.5,2.47-5.5,5.5s2.47,5.5,5.5,5.5s5.5-2.47,5.5-5.5S29.53,46,26.5,46z M26.5,53   c-0.83,0-1.5-0.67-1.5-1.5s0.67-1.5,1.5-1.5s1.5,0.67,1.5,1.5S27.33,53,26.5,53z"/><path d="M64,46c-1.1,0-2,0.9-2,2v7c0,1.1,0.9,2,2,2s2-0.9,2-2v-7C66,46.9,65.1,46,64,46z"/><path d="M72,46c-1.1,0-2,0.9-2,2v7c0,1.1,0.9,2,2,2s2-0.9,2-2v-7C74,46.9,73.1,46,72,46z"/><path d="M83,72.55c0-3.61-2.94-6.55-6.55-6.55H20.55C16.94,66,14,68.94,14,72.55v11.89c0,3.61,2.94,6.55,6.55,6.55h55.89   c3.61,0,6.55-2.94,6.55-6.55V72.55z M79,84.45c0,1.41-1.15,2.55-2.55,2.55H20.55C19.15,87,18,85.85,18,84.45V72.55   c0-1.41,1.15-2.55,2.55-2.55h55.89c1.41,0,2.55,1.15,2.55,2.55V84.45z"/><path d="M26.5,73c-3.03,0-5.5,2.47-5.5,5.5s2.47,5.5,5.5,5.5s5.5-2.47,5.5-5.5S29.53,73,26.5,73z M26.5,80   c-0.83,0-1.5-0.67-1.5-1.5s0.67-1.5,1.5-1.5s1.5,0.67,1.5,1.5S27.33,80,26.5,80z"/><path d="M64,73c-1.1,0-2,0.9-2,2v7c0,1.1,0.9,2,2,2s2-0.9,2-2v-7C66,73.9,65.1,73,64,73z"/><path d="M72,73c-1.1,0-2,0.9-2,2v7c0,1.1,0.9,2,2,2s2-0.9,2-2v-7C74,73.9,73.1,73,72,73z"/></g><text x="0" y="115" fill="#000000" font-size="5px" font-weight="bold" font-family="'Helvetica Neue', Helvetica, Arial-Unicode, Arial, Sans-serif">Created by Icon Master</text><text x="0" y="120" fill="#000000" font-size="5px" font-weight="bold" font-family="'Helvetica Neue', Helvetica, Arial-Unicode, Arial, Sans-serif">from the Noun Project</text></svg>