<svg xmlns="http://www.w3.org/2000/svg" viewBox="0 0 1992.91 2483.75" x="0px" y="0px"><title>Balanza</title><g data-name="Capa 2"><path d="M592.69,961.71l-238-527.13a45,45,0,0,0-82,0l-238,527.13a45,45,0,0,0-31.47,42.93,310.52,310.52,0,0,0,530.08,219.57,308.48,308.48,0,0,0,90.95-219.57A45,45,0,0,0,592.69,961.71Zm-279-399.27L493,959.64H134.27Zm0,662.71c-106.18,0-195.06-75.43-215.89-175.52H529.53C508.7,1149.72,419.81,1225.16,313.64,1225.16Z" transform="translate(-3.12 -7.79)"/><path d="M1964.57,961.71l-238-527.13a45,45,0,0,0-82,0l-238,527.13a45,45,0,0,0-31.47,42.93,310.52,310.52,0,0,0,621,0A45,45,0,0,0,1964.57,961.71ZM1685.52,562.44l179.36,397.2H1506.15Zm0,662.71c-106.18,0-195.06-75.43-215.89-175.52h431.79C1880.58,1149.72,1791.69,1225.16,1685.52,1225.16Z" transform="translate(-3.12 -7.79)"/><path d="M1356.45,1904.79H1193.19c-2.55-79.94-58.14-146.73-132.66-166.24V365a149.2,149.2,0,0,0,102.05-119.33A1049.42,1049.42,0,0,1,1303.29,241c76.84,2.43,187.08,14.06,301.88,53.25a78.12,78.12,0,1,0,32.22-84.1,1055.09,1055.09,0,0,0-150.46-39.65,1190,1190,0,0,0-183.32-19.53c-70-2.07-124.9,2.31-155.09,5.68a149.79,149.79,0,0,0-55.62-60.42,78.06,78.06,0,1,0-154.71,0,149.73,149.73,0,0,0-57.87,65.08,45.38,45.38,0,0,0-5.39-1.26c-3-.5-74.41-12.23-180.83-9.09a1190,1190,0,0,0-183.32,19.53A1055.09,1055.09,0,0,0,360.3,210.1a78,78,0,1,0,32.22,84.1C507.32,255,617.56,243.38,694.4,241c98.22-3.1,165,7.72,165.69,7.83a45.19,45.19,0,0,0,9,.59A149.24,149.24,0,0,0,970.54,365V1738.55c-74.52,19.51-130.11,86.3-132.66,166.24H674.62a45,45,0,0,0,0,90h681.83a45,45,0,0,0,0-90ZM1015.54,73.91a11.88,11.88,0,0,1,3.64.57q-1.82,0-3.64,0t-3.64,0A11.88,11.88,0,0,1,1015.54,73.91Zm0,90.53a58.74,58.74,0,1,1-58.74,58.74A58.81,58.81,0,0,1,1015.54,164.44Zm0,1658.33a87.87,87.87,0,0,1,87.57,82H928A87.87,87.87,0,0,1,1015.54,1822.77Z" transform="translate(-3.12 -7.79)"/></g><text x="0" y="2002" fill="#000000" font-size="5px" font-weight="bold" font-family="'Helvetica Neue', Helvetica, Arial-Unicode, Arial, Sans-serif">Created by Linker</text><text x="0" y="2007" fill="#000000" font-size="5px" font-weight="bold" font-family="'Helvetica Neue', Helvetica, Arial-Unicode, Arial, Sans-serif">from the Noun Project</text></svg>