<svg width="64" height="80" viewBox="0 0 64 80" fill="none" xmlns="http://www.w3.org/2000/svg">
<g clip-path="url(#clip0)">
<path d="M52.555 52.255V51.275C52.5548 50.0455 52.0662 48.8665 51.1969 47.9971C50.3275 47.1278 49.1485 46.6393 47.919 46.639H28.072C27.4192 46.6401 26.7788 46.4613 26.221 46.1223C25.6632 45.7832 25.2096 45.297 24.91 44.717H43.951C44.1841 44.717 44.4077 44.6244 44.5726 44.4595C44.7374 44.2947 44.83 44.0711 44.83 43.838V43.207C44.8295 42.2772 44.46 41.3857 43.8026 40.7281C43.1453 40.0706 42.2538 39.7008 41.324 39.7H22.81C22.5331 39.137 22.1275 38.6472 21.626 38.2703C21.1245 37.8933 20.5413 37.6398 19.9236 37.5302C19.3059 37.4206 18.671 37.4581 18.0705 37.6397C17.47 37.8212 16.9206 38.1416 16.467 38.575C14.1994 37.6033 12.336 35.8797 11.1909 33.6945C10.0458 31.5093 9.68895 28.9961 10.1806 26.5785C10.6722 24.1609 11.9822 21.9867 13.8898 20.4223C15.7974 18.8579 18.186 17.9988 20.653 17.99H27.446V18.683C26.5169 18.8839 25.6847 19.397 25.0878 20.1368C24.4909 20.8765 24.1654 21.7984 24.1654 22.749C24.1654 23.6996 24.4909 24.6214 25.0878 25.3612C25.6847 26.101 26.5169 26.6141 27.446 26.815V27.573C27.062 27.6967 26.7272 27.9389 26.4895 28.2648C26.2518 28.5907 26.1235 28.9836 26.123 29.387V35.605C26.1235 36.1106 26.3246 36.5953 26.6822 36.9529C27.0397 37.3104 27.5244 37.5115 28.03 37.512H37.43C37.9356 37.5115 38.4204 37.3104 38.7779 36.9529C39.1354 36.5953 39.3365 36.1106 39.337 35.605V29.389C39.3363 28.9855 39.208 28.5927 38.9703 28.2666C38.7326 27.9406 38.3979 27.6981 38.014 27.574V11.208C38.0134 10.8183 37.8934 10.4382 37.6703 10.1188C37.4472 9.79928 37.1316 9.55579 36.766 9.421V4.447C36.7658 3.99824 36.5874 3.56792 36.2702 3.25051C35.953 2.9331 35.5228 2.75453 35.074 2.754H30.386C29.9373 2.75453 29.5071 2.9331 29.1898 3.25051C28.8726 3.56792 28.6943 3.99824 28.694 4.447V9.421C28.3284 9.55579 28.0128 9.79928 27.7897 10.1188C27.5666 10.4382 27.4467 10.8183 27.446 11.208V12.719H20.69C16.9283 12.7181 13.2866 14.0427 10.4044 16.46C7.52228 18.8773 5.58399 22.2328 4.92998 25.9372C4.27598 29.6416 4.94808 33.458 6.82826 36.7161C8.70843 39.9742 11.6764 42.4657 15.211 43.753V52.253H11.76C11.016 52.2538 10.3026 52.5496 9.7764 53.0757C9.25019 53.6017 8.95408 54.3149 8.95302 55.059V58.443C8.95381 59.1872 9.2498 59.9007 9.77605 60.427C10.3023 60.9532 11.0158 61.2492 11.76 61.25H57.3C57.8329 61.2492 58.3437 61.0372 58.7204 60.6604C59.0972 60.2836 59.3092 59.7728 59.31 59.24C59.3105 57.4273 58.6061 55.6855 57.3457 54.3828C56.0853 53.08 54.3677 52.3184 52.556 52.259L52.555 52.255ZM43.055 42.955H24.168L23.547 41.455H41.324C41.745 41.456 42.1515 41.6086 42.4691 41.8848C42.7868 42.161 42.9944 42.5423 43.054 42.959L43.055 42.955ZM29.2 11.208C29.2 11.1884 29.2039 11.1691 29.2114 11.151C29.2188 11.1329 29.2298 11.1165 29.2437 11.1026C29.2575 11.0888 29.2739 11.0778 29.292 11.0703C29.3101 11.0629 29.3295 11.059 29.349 11.059H36.1C36.1196 11.059 36.139 11.0629 36.157 11.0703C36.1751 11.0778 36.1915 11.0888 36.2054 11.1026C36.2192 11.1165 36.2302 11.1329 36.2377 11.151C36.2452 11.1691 36.249 11.1884 36.249 11.208V14.491H29.2V11.208ZM31.849 29.24V35.756H30.449V29.24H31.849ZM33.607 29.24H35.007V35.756H33.607V29.24ZM29.207 27.482V26.817C30.1361 26.6161 30.9683 26.103 31.5652 25.3632C32.1621 24.6234 32.4877 23.7016 32.4877 22.751C32.4877 21.8004 32.1621 20.8785 31.5652 20.1388C30.9683 19.399 30.1361 18.8859 29.207 18.685V16.249H36.256V27.482H29.207ZM25.925 22.751C25.925 22.2763 26.0658 21.8123 26.3295 21.4176C26.5932 21.023 26.968 20.7153 27.4066 20.5337C27.8451 20.352 28.3277 20.3045 28.7932 20.3971C29.2588 20.4897 29.6864 20.7183 30.0221 21.0539C30.3577 21.3896 30.5863 21.8172 30.6789 22.2828C30.7715 22.7483 30.724 23.2309 30.5423 23.6694C30.3607 24.108 30.0531 24.4828 29.6584 24.7465C29.2637 25.0102 28.7997 25.151 28.325 25.151C28.0096 25.1514 27.6972 25.0896 27.4057 24.9692C27.1141 24.8487 26.8492 24.672 26.626 24.4491C26.4028 24.2262 26.2258 23.9615 26.105 23.6701C25.9842 23.3788 25.922 23.0664 25.922 22.751H25.925ZM27.884 35.607V29.389C27.884 29.3495 27.8997 29.3116 27.9277 29.2836C27.9556 29.2557 27.9935 29.24 28.033 29.24H28.697V35.756H28.03C27.9905 35.756 27.9526 35.7403 27.9247 35.7124C27.8967 35.6844 27.881 35.6465 27.881 35.607H27.884ZM37.584 35.607C37.584 35.6465 37.5683 35.6844 37.5404 35.7124C37.5124 35.7403 37.4745 35.756 37.435 35.756H36.771V29.24H37.435C37.4745 29.24 37.5124 29.2557 37.5404 29.2836C37.5683 29.3116 37.584 29.3495 37.584 29.389V35.607ZM30.452 4.512H35.005V9.3H30.452V4.512ZM6.45202 28.718C6.45625 24.9428 7.95755 21.3233 10.6267 18.6535C13.2958 15.9836 16.9148 14.4813 20.69 14.476H27.446V16.234H20.646C17.8026 16.2439 15.0477 17.2241 12.837 19.0125C10.6264 20.8009 9.09245 23.2904 8.48894 26.0691C7.88544 28.8478 8.24853 31.7492 9.51815 34.2935C10.7878 36.8378 12.8878 38.8725 15.471 40.061C15.2963 40.5178 15.2068 41.0029 15.207 41.492V41.866C12.6086 40.789 10.3888 38.9642 8.82947 36.6232C7.27013 34.2823 6.44158 31.5308 6.44902 28.718H6.45202ZM16.968 41.492C16.9685 40.892 17.2071 40.3167 17.6314 39.8924C18.0557 39.4681 18.631 39.2295 19.231 39.229C19.6726 39.228 20.1044 39.3586 20.4715 39.604C20.8385 39.8494 21.1242 40.1986 21.292 40.607L23.155 45.107C23.5549 46.0822 24.2361 46.9162 25.1118 47.5026C25.9875 48.0891 27.0181 48.4015 28.072 48.4H47.919C48.297 48.3996 48.6713 48.4737 49.0206 48.6179C49.3699 48.7622 49.6874 48.9739 49.955 49.2408C50.2225 49.5078 50.4348 49.8248 50.5798 50.1739C50.7248 50.5229 50.7996 50.8971 50.8 51.275V52.249H16.968V41.492ZM23 54.007V59.488H19.377V54.007H23ZM24.758 54.007H28.385V59.488H24.762L24.758 54.007ZM10.711 58.439V55.055C10.7115 54.777 10.8223 54.5106 11.0189 54.3142C11.2155 54.1177 11.4821 54.0073 11.76 54.007H17.619V59.488H11.76C11.4819 59.4877 11.2152 59.3771 11.0186 59.1805C10.8219 58.9838 10.7113 58.7171 10.711 58.439ZM57.551 59.239C57.5508 59.3057 57.5241 59.3695 57.4769 59.4165C57.4296 59.4636 57.3657 59.49 57.299 59.49H30.147V54.007H52.321C53.7078 54.0073 55.0378 54.5582 56.0185 55.5388C56.9993 56.5193 57.5505 57.8492 57.551 59.236V59.239Z" fill="black"/>
<path d="M19.3841 40.9C19.1255 40.8998 18.8726 40.9763 18.6575 41.1198C18.4425 41.2634 18.2748 41.4675 18.1757 41.7064C18.0767 41.9452 18.0507 42.2081 18.1011 42.4617C18.1515 42.7154 18.276 42.9483 18.4589 43.1312C18.6417 43.314 18.8747 43.4385 19.1283 43.4889C19.3819 43.5393 19.6448 43.5134 19.8837 43.4143C20.1225 43.3153 20.3267 43.1476 20.4702 42.9325C20.6137 42.7174 20.6902 42.4646 20.6901 42.206C20.6898 41.8597 20.5521 41.5277 20.3072 41.2828C20.0624 41.0379 19.7303 40.9003 19.3841 40.9V40.9Z" fill="black"/>
<path d="M29.631 22.751C29.631 22.4925 29.5543 22.2397 29.4107 22.0248C29.267 21.8098 29.0628 21.6423 28.824 21.5434C28.5851 21.4445 28.3222 21.4187 28.0687 21.4692C27.8151 21.5197 27.5822 21.6443 27.3995 21.8272C27.2167 22.0101 27.0923 22.243 27.042 22.4966C26.9917 22.7502 27.0177 23.0131 27.1168 23.2519C27.2159 23.4907 27.3836 23.6947 27.5986 23.8382C27.8137 23.9817 28.0665 24.0582 28.325 24.058C28.6715 24.0577 29.0037 23.9199 29.2486 23.6748C29.4935 23.4298 29.631 23.0975 29.631 22.751V22.751Z" fill="black"/>
</g>
<defs>
<clipPath id="clip0">
<rect width="64" height="80" fill="white"/>
</clipPath>
</defs>
</svg>
