<svg width="101" height="125" viewBox="0 0 101 125" fill="none" xmlns="http://www.w3.org/2000/svg">
<g clip-path="url(#clip0)">
<path d="M29.6714 48.008L17.6935 21.4791C17.514 21.0823 17.2239 20.7457 16.8579 20.5095C16.492 20.2734 16.0657 20.1478 15.6301 20.1478C15.1946 20.1478 14.7683 20.2734 14.4023 20.5095C14.0364 20.7457 13.7462 21.0823 13.5667 21.4791L1.58886 48.008C1.12939 48.1529 0.728086 48.4405 0.443261 48.829C0.158437 49.2176 0.00493559 49.6868 0.005066 50.1686C0.00518141 53.2593 0.921768 56.2806 2.63893 58.8504C4.35608 61.4202 6.79669 63.4232 9.65215 64.606C12.5076 65.7887 15.6497 66.0983 18.681 65.4954C21.7124 64.8925 24.4969 63.4043 26.6825 61.2189C28.1382 59.7711 29.2923 58.049 30.078 56.1522C30.8637 54.2554 31.2654 52.2217 31.2597 50.1686C31.2596 49.6863 31.1054 49.2166 30.8197 48.828C30.534 48.4393 30.1317 48.1521 29.6714 48.008ZM15.6301 27.9139L24.6543 47.9039H6.60044L15.6301 27.9139ZM15.6301 61.2662C10.2864 61.2662 5.81332 57.47 4.76501 52.4328H26.4928C25.4444 57.47 20.9709 61.2667 15.6276 61.2667L15.6301 61.2662Z" fill="black"/>
<path d="M98.7143 48.008L86.7364 21.4791C86.5569 21.0823 86.2668 20.7457 85.9008 20.5095C85.5348 20.2734 85.1085 20.1478 84.673 20.1478C84.2374 20.1478 83.8111 20.2734 83.4452 20.5095C83.0792 20.7457 82.7891 21.0823 82.6095 21.4791L70.6317 48.008C70.1722 48.1528 69.7709 48.4404 69.486 48.829C69.2012 49.2175 69.0477 49.6868 69.0479 50.1685C69.0945 54.2822 70.7615 58.2116 73.687 61.1041C76.6125 63.9965 80.5605 65.6187 84.6745 65.6187C88.7885 65.6187 92.7365 63.9965 95.662 61.1041C98.5875 58.2116 100.254 54.2822 100.301 50.1685C100.301 49.6864 100.147 49.2169 99.8617 48.8283C99.5763 48.4397 99.1743 48.1523 98.7143 48.008V48.008ZM84.6705 27.9139L93.6972 47.9038H75.6432L84.6705 27.9139ZM84.6705 61.2662C79.3267 61.2662 74.8536 57.47 73.8053 52.4328H95.5361C94.4873 57.47 90.0137 61.2667 84.6705 61.2667V61.2662Z" fill="black"/>
<path d="M68.1093 95.4706H59.8929C59.7645 91.4475 56.9668 88.0861 53.2165 87.1042V17.9774C54.5461 17.5526 55.7311 16.7657 56.6383 15.7049C57.5455 14.644 58.1391 13.3513 58.3523 11.9718C60.7049 11.7351 63.0708 11.6565 65.4339 11.7368C69.301 11.8591 74.8491 12.4444 80.6266 14.4167C80.832 15.226 81.2896 15.949 81.9333 16.4808C82.577 17.0126 83.3733 17.3256 84.2068 17.3746C85.0403 17.4236 85.8678 17.2059 86.5694 16.7532C87.2709 16.3004 87.8101 15.6361 88.1088 14.8564C88.4075 14.0767 88.4502 13.2221 88.2308 12.4165C88.0113 11.6109 87.5411 10.8961 86.8882 10.3756C86.2354 9.85514 85.4337 9.55603 84.5995 9.52161C83.7652 9.4872 82.9417 9.71927 82.2482 10.1842C79.7767 9.33359 77.2457 8.66662 74.676 8.18874C71.6307 7.62303 68.5461 7.29441 65.45 7.20585C61.9271 7.10167 59.1641 7.3221 57.6447 7.49171C57.0132 6.23714 56.0437 5.18396 54.8455 4.45094C54.9207 3.8956 54.8762 3.33061 54.7149 2.7939C54.5537 2.2572 54.2795 1.7612 53.9108 1.3392C53.542 0.917204 53.0873 0.578982 52.577 0.347241C52.0668 0.115501 51.5129 -0.00439453 50.9525 -0.00439453C50.3921 -0.00439453 49.8382 0.115501 49.3279 0.347241C48.8177 0.578982 48.3629 0.917204 47.9942 1.3392C47.6255 1.7612 47.3513 2.2572 47.19 2.7939C47.0288 3.33061 46.9843 3.8956 47.0594 4.45094C45.7855 5.23002 44.7718 6.37002 44.147 7.72623C44.0579 7.69959 43.9674 7.67842 43.8757 7.66282C43.7247 7.63766 40.1309 7.04732 34.7751 7.20535C31.679 7.29391 28.5944 7.62252 25.5491 8.18824C22.9791 8.66541 20.4478 9.33171 17.9759 10.1817C17.2832 9.71842 16.4611 9.48759 15.6285 9.52262C14.7959 9.55764 13.9961 9.8567 13.3448 10.3765C12.6935 10.8963 12.2245 11.6099 12.0057 12.414C11.7869 13.2181 11.8297 14.0709 12.1278 14.8491C12.4259 15.6272 12.9639 16.2903 13.664 16.7424C14.364 17.1944 15.1897 17.412 16.0216 17.3635C16.8535 17.3151 17.6484 17.0032 18.2913 16.473C18.9341 15.9427 19.3916 15.2217 19.5974 14.4142C25.375 12.4414 30.923 11.8566 34.7902 11.7368C39.7333 11.5808 43.0942 12.1253 43.1289 12.1309C43.2785 12.1558 43.4302 12.1658 43.5818 12.1606C43.8247 13.5022 44.4283 14.7525 45.3277 15.7773C46.2272 16.802 47.3886 17.5626 48.6875 17.9774V87.1042C44.9371 88.0861 42.1394 91.4475 42.0111 95.4706H33.7947C33.1941 95.4706 32.618 95.7092 32.1933 96.1339C31.7686 96.5587 31.53 97.1347 31.53 97.7353C31.53 98.336 31.7686 98.912 32.1933 99.3367C32.618 99.7615 33.1941 100 33.7947 100H68.1093C68.7099 100 69.2859 99.7615 69.7107 99.3367C70.1354 98.912 70.374 98.336 70.374 97.7353C70.374 97.1347 70.1354 96.5587 69.7107 96.1339C69.2859 95.7092 68.7099 95.4706 68.1093 95.4706V95.4706ZM50.9522 3.32764C51.0144 3.32762 51.0762 3.33729 51.1354 3.35633C51.0744 3.35633 51.0133 3.35633 50.9522 3.35633C50.8912 3.35633 50.8301 3.35633 50.769 3.35633C50.8282 3.33729 50.89 3.32762 50.9522 3.32764V3.32764ZM50.9522 7.88376C51.5369 7.88376 52.1085 8.05714 52.5946 8.38197C53.0808 8.7068 53.4597 9.1685 53.6834 9.70868C53.9072 10.2489 53.9657 10.8433 53.8517 11.4167C53.7376 11.9902 53.456 12.5169 53.0426 12.9303C52.6292 13.3438 52.1024 13.6253 51.529 13.7394C50.9555 13.8535 50.3611 13.7949 49.8209 13.5712C49.2808 13.3474 48.8191 12.9685 48.4942 12.4824C48.1694 11.9962 47.996 11.4247 47.996 10.84C47.9969 10.0562 48.3087 9.30484 48.8629 8.75064C49.4171 8.19645 50.1685 7.88469 50.9522 7.88376V7.88376ZM50.9522 91.3428C52.073 91.3441 53.1515 91.771 53.9697 92.5371C54.7878 93.3031 55.2845 94.3513 55.3594 95.4696H46.5466C46.6214 94.3516 47.1179 93.3036 47.9358 92.5376C48.7536 91.7715 49.8317 91.3445 50.9522 91.3428V91.3428Z" fill="black"/>
</g>
<defs>
<clipPath id="clip0">
<rect width="100.297" height="125" fill="white"/>
</clipPath>
</defs>
</svg>
