<svg width="100" height="125" viewBox="0 0 100 125" fill="none" xmlns="http://www.w3.org/2000/svg">
<path d="M83 18.55C83 14.94 80.06 12 76.45 12H20.55C16.94 12 14 14.94 14 18.55V30.44C14 34.05 16.94 36.99 20.55 36.99H76.44C80.05 36.99 82.99 34.05 82.99 30.44V18.55H83ZM79 30.45C79 31.86 77.85 33 76.45 33H20.55C19.15 33 18 31.85 18 30.45V18.55C18 17.14 19.15 16 20.55 16H76.44C77.85 16 78.99 17.15 78.99 18.55V30.45H79Z" fill="black"/>
<path d="M26.5 19C23.47 19 21 21.47 21 24.5C21 27.53 23.47 30 26.5 30C29.53 30 32 27.53 32 24.5C32 21.47 29.53 19 26.5 19ZM26.5 26C25.67 26 25 25.33 25 24.5C25 23.67 25.67 23 26.5 23C27.33 23 28 23.67 28 24.5C28 25.33 27.33 26 26.5 26Z" fill="black"/>
<path d="M64 19C62.9 19 62 19.9 62 21V28C62 29.1 62.9 30 64 30C65.1 30 66 29.1 66 28V21C66 19.9 65.1 19 64 19Z" fill="black"/>
<path d="M72 19C70.9 19 70 19.9 70 21V28C70 29.1 70.9 30 72 30C73.1 30 74 29.1 74 28V21C74 19.9 73.1 19 72 19Z" fill="black"/>
<path d="M83 45.55C83 41.94 80.06 39 76.45 39H20.55C16.94 39 14 41.94 14 45.55V57.44C14 61.05 16.94 63.99 20.55 63.99H76.44C80.05 63.99 82.99 61.05 82.99 57.44V45.55H83ZM79 57.45C79 58.86 77.85 60 76.45 60H20.55C19.15 60 18 58.85 18 57.45V45.55C18 44.14 19.15 43 20.55 43H76.44C77.85 43 78.99 44.15 78.99 45.55V57.45H79Z" fill="black"/>
<path d="M26.5 46C23.47 46 21 48.47 21 51.5C21 54.53 23.47 57 26.5 57C29.53 57 32 54.53 32 51.5C32 48.47 29.53 46 26.5 46ZM26.5 53C25.67 53 25 52.33 25 51.5C25 50.67 25.67 50 26.5 50C27.33 50 28 50.67 28 51.5C28 52.33 27.33 53 26.5 53Z" fill="black"/>
<path d="M64 46C62.9 46 62 46.9 62 48V55C62 56.1 62.9 57 64 57C65.1 57 66 56.1 66 55V48C66 46.9 65.1 46 64 46Z" fill="black"/>
<path d="M72 46C70.9 46 70 46.9 70 48V55C70 56.1 70.9 57 72 57C73.1 57 74 56.1 74 55V48C74 46.9 73.1 46 72 46Z" fill="black"/>
<path d="M83 72.55C83 68.94 80.06 66 76.45 66H20.55C16.94 66 14 68.94 14 72.55V84.44C14 88.05 16.94 90.99 20.55 90.99H76.44C80.05 90.99 82.99 88.05 82.99 84.44V72.55H83ZM79 84.45C79 85.86 77.85 87 76.45 87H20.55C19.15 87 18 85.85 18 84.45V72.55C18 71.14 19.15 70 20.55 70H76.44C77.85 70 78.99 71.15 78.99 72.55V84.45H79Z" fill="black"/>
<path d="M26.5 73C23.47 73 21 75.47 21 78.5C21 81.53 23.47 84 26.5 84C29.53 84 32 81.53 32 78.5C32 75.47 29.53 73 26.5 73ZM26.5 80C25.67 80 25 79.33 25 78.5C25 77.67 25.67 77 26.5 77C27.33 77 28 77.67 28 78.5C28 79.33 27.33 80 26.5 80Z" fill="black"/>
<path d="M64 73C62.9 73 62 73.9 62 75V82C62 83.1 62.9 84 64 84C65.1 84 66 83.1 66 82V75C66 73.9 65.1 73 64 73Z" fill="black"/>
<path d="M72 73C70.9 73 70 73.9 70 75V82C70 83.1 70.9 84 72 84C73.1 84 74 83.1 74 82V75C74 73.9 73.1 73 72 73Z" fill="black"/>
</svg>
