<svg width="100" height="125" viewBox="0 0 100 125" fill="none" xmlns="http://www.w3.org/2000/svg">
<path d="M84 2.5H30C27.1 2.5 24.7 4.9 24.7 7.8V16.5H16C13.1 16.5 10.7 18.9 10.7 21.8V92.3C10.7 95.2 13.1 97.6 16 97.6H70C72.9 97.6 75.3 95.2 75.3 92.3V83.6H84C86.9 83.6 89.3 81.2 89.3 78.3V7.8C89.2 4.9 86.9 2.5 84 2.5ZM71 92.2C71 92.7 70.6 93.1 70 93.1H16C15.5 93.1 15.1 92.7 15.1 92.2V21.7C15.1 21.2 15.5 20.8 16 20.8H24.7V78.3C24.7 81.2 27.1 83.6 30 83.6H71V92.2ZM84.9 78.3C84.9 78.8 84.5 79.3 83.9 79.3H30C29.5 79.3 29 78.9 29 78.3V7.8C29 7.3 29.4 6.8 30 6.8H84C84.5 6.8 85 7.2 85 7.8V78.3H84.9Z" fill="black"/>
<path d="M73 53.2H40.9C39.7 53.2 38.7 54.2 38.7 55.4C38.7 56.6 39.7 57.6 40.9 57.6H73C74.2 57.6 75.2 56.6 75.2 55.4C75.2 54.2 74.2 53.2 73 53.2Z" fill="black"/>
<path d="M73 66.2H40.9C39.7 66.2 38.7 67.2 38.7 68.4C38.7 69.6 39.7 70.6 40.9 70.6H73C74.2 70.6 75.2 69.6 75.2 68.4C75.2 67.2 74.2 66.2 73 66.2Z" fill="black"/>
<path d="M73 40.3H40.9C39.7 40.3 38.7 41.3 38.7 42.5C38.7 43.7 39.7 44.7 40.9 44.7H73C74.2 44.7 75.2 43.7 75.2 42.5C75.2 41.2 74.2 40.3 73 40.3Z" fill="black"/>
<path d="M44.7 32H48.6C49.1 32 49.4 31.6 49.4 31.2V25C49.4 24.5 49 24.2 48.6 24.2H44.7C44.2 24.2 43.9 24.6 43.9 25V31.2C43.9 31.6 44.3 32 44.7 32Z" fill="#EB5757"/>
<path d="M54.4 32H58.3C58.8 32 59.1 31.6 59.1 31.2V20.5C59.1 20 58.7 19.7 58.3 19.7H54.4C53.9 19.7 53.6 20.1 53.6 20.5V31.1C53.6 31.6 54 32 54.4 32Z" fill="#27AE60"/>
<path d="M64.1 32H68C68.5 32 68.8001 31.6 68.8001 31.2V16.2C68.8001 15.8 68.4 15.4 68 15.4H64.1C63.6 15.4 63.3 15.8 63.3 16.2V31.2C63.3 31.6 63.7 32 64.1 32Z" fill="#2D9CDB"/>
</svg>
