<svg width="73" height="56" viewBox="0 0 73 56" fill="none" xmlns="http://www.w3.org/2000/svg">
<path d="M71.7559 28.1774L62.5359 8.69511H66.3842C66.8095 8.69511 67.2174 8.52617 67.5181 8.22546C67.8188 7.92475 67.9877 7.5169 67.9877 7.09163C67.9877 6.66636 67.8188 6.25851 67.5181 5.95779C67.2174 5.65708 66.8095 5.48814 66.3842 5.48814H43.2139C42.8746 3.93312 42.0137 2.54091 40.7741 1.54262C39.5344 0.544327 37.9907 0 36.3991 0C34.8075 0 33.2637 0.544327 32.0241 1.54262C30.7845 2.54091 29.9236 3.93312 29.5843 5.48814H6.41394C5.98867 5.48814 5.58081 5.65708 5.2801 5.95779C4.97939 6.25851 4.81045 6.66636 4.81045 7.09163C4.81045 7.5169 4.97939 7.92475 5.2801 8.22546C5.58081 8.52617 5.98867 8.69511 6.41394 8.69511H10.2623L1.04226 28.1774C0.745399 28.2881 0.487972 28.4842 0.302475 28.7411C0.116977 28.9979 0.0117242 29.304 2.54111e-09 29.6206C-3.34518e-05 31.2909 0.33026 32.9447 0.97187 34.4868C1.61348 36.029 2.55374 37.429 3.73853 38.6063C4.92333 39.7837 6.32926 40.7151 7.87542 41.347C9.42158 41.9788 11.0774 42.2987 12.7477 42.2881C16.1233 42.247 19.3502 40.8932 21.7448 38.5136C24.1393 36.1341 25.5133 32.9157 25.5756 29.5404C25.5806 29.217 25.4705 28.9023 25.2649 28.6526C25.0593 28.4029 24.7715 28.2345 24.4531 28.1774L15.2331 8.69511H29.5843C29.9388 9.90048 30.6087 10.9893 31.5249 11.8491C32.441 12.7089 33.5702 13.3084 34.7956 13.5857V43.5709C32.1605 43.9226 29.7447 45.225 28.0025 47.2329C26.2603 49.2409 25.3117 51.8162 25.335 54.4746C25.3348 54.6816 25.3767 54.8864 25.4582 55.0767C25.5397 55.2669 25.6591 55.4385 25.8092 55.5811C25.9592 55.7236 26.1368 55.8341 26.3309 55.9058C26.5251 55.9774 26.7318 56.0088 26.9385 55.9979H45.8596C46.0663 56.0088 46.2731 55.9774 46.4672 55.9058C46.6614 55.8341 46.8389 55.7236 46.989 55.5811C47.1391 55.4385 47.2585 55.2669 47.34 55.0767C47.4215 54.8864 47.4634 54.6816 47.4631 54.4746C47.4865 51.8162 46.5379 49.2409 44.7957 47.2329C43.0534 45.225 40.6376 43.9226 38.0026 43.5709V13.5857C39.228 13.3084 40.3571 12.7089 41.2733 11.8491C42.1894 10.9893 42.8594 9.90048 43.2139 8.69511H57.5651L48.345 28.1774C48.0201 28.2514 47.7307 28.4355 47.5261 28.6986C47.3215 28.9617 47.2143 29.2874 47.2226 29.6206C47.2226 31.2909 47.5529 32.9447 48.1945 34.4868C48.8361 36.029 49.7763 37.429 50.9611 38.6063C52.1459 39.7837 53.5519 40.7151 55.098 41.347C56.6442 41.9788 58.3 42.2987 59.9703 42.2881C63.3386 42.2678 66.5655 40.9316 68.9621 38.5649C71.3588 36.1981 72.7355 32.9883 72.7982 29.6206C72.7766 29.3067 72.6676 29.0051 72.4834 28.75C72.2991 28.4949 72.0471 28.2966 71.7559 28.1774V28.1774ZM68.1481 27.9369H51.9529L60.0505 10.5391L68.1481 27.9369ZM12.7477 10.5391L20.8453 27.9369H4.6501L12.7477 10.5391ZM12.7477 39.0811C10.4952 39.0914 8.31299 38.2977 6.59347 36.8427C4.87395 35.3878 3.72998 33.367 3.36732 31.1439H22.2083C21.7844 33.353 20.6122 35.3485 18.8889 36.7943C17.1657 38.24 14.9968 39.0477 12.7477 39.0811V39.0811ZM44.0958 52.7909H28.7024C29.1351 51.0557 30.1195 49.5079 31.5075 48.3801C32.8955 47.2524 34.612 46.6057 36.3991 46.5373C38.1861 46.6057 39.9027 47.2524 41.2907 48.3801C42.6787 49.5079 43.663 51.0557 44.0958 52.7909V52.7909ZM36.3991 10.5391C35.6538 10.5391 34.9253 10.3181 34.3056 9.90407C33.6859 9.49001 33.2029 8.9015 32.9177 8.21296C32.6325 7.52441 32.5579 6.76675 32.7033 6.03579C32.8487 5.30484 33.2076 4.63341 33.7346 4.10642C34.2616 3.57943 34.933 3.22055 35.664 3.07515C36.3949 2.92975 37.1526 3.00438 37.8411 3.28958C38.5297 3.57479 39.1182 4.05776 39.5322 4.67744C39.9463 5.29711 40.1673 6.02566 40.1673 6.77093C40.1673 7.26578 40.0698 7.75578 39.8804 8.21296C39.6911 8.67013 39.4135 9.08553 39.0636 9.43544C38.7137 9.78535 38.2983 10.0629 37.8411 10.2523C37.3839 10.4417 36.8939 10.5391 36.3991 10.5391V10.5391ZM59.9703 39.0811C57.7178 39.0914 55.5356 38.2977 53.8161 36.8427C52.0966 35.3878 50.9526 33.367 50.5899 31.1439H69.4309C69.007 33.353 67.8348 35.3485 66.1115 36.7943C64.3883 38.24 62.2194 39.0477 59.9703 39.0811V39.0811Z" fill="black"/>
</svg>
